<svg xmlns="http://www.w3.org/2000/svg" width="74.853" height="80.808" viewBox="0 0 74.853 80.808">
  <path id="Path_4160" data-name="Path 4160" d="M170.016,24.144H153.066a15.992,15.992,0,0,0,1.283-1.1c4.581-4.581,4.856-11.636.641-15.758a10.105,10.105,0,0,0-7.238-2.932,12.16,12.16,0,0,0-8.521,3.573,26.821,26.821,0,0,0-3.848,5.5,20.253,20.253,0,0,0-3.848-5.5,12.16,12.16,0,0,0-8.521-3.573,9.954,9.954,0,0,0-7.238,2.932c-4.123,4.123-3.848,11.269.641,15.758a15.98,15.98,0,0,0,1.283,1.1H100.752A2.757,2.757,0,0,0,98,26.893V46.774a2.757,2.757,0,0,0,2.749,2.749h.458V82.415a2.757,2.757,0,0,0,2.749,2.749H166.9a2.757,2.757,0,0,0,2.749-2.749V49.432h.458a2.757,2.757,0,0,0,2.749-2.749V26.893a2.968,2.968,0,0,0-2.84-2.749ZM132.635,79.575h-26.02V49.432h26.02Zm0-35.548H103.408V29.643h29.227Zm0-20.89a1.365,1.365,0,0,1-.275.733,2.306,2.306,0,0,1-1.283.275c-3.3,0-8.612-2.749-10.9-4.948-2.382-2.382-2.749-6.047-.641-8.062a4.936,4.936,0,0,1,3.39-1.374,6.769,6.769,0,0,1,4.673,2.016,20.85,20.85,0,0,1,5.039,10.445c0,.275,0,.641,0,.916Zm5.406-.916a20.85,20.85,0,0,1,5.039-10.445,6.77,6.77,0,0,1,4.673-2.016,4.419,4.419,0,0,1,3.39,1.374c2.016,2.016,1.74,5.68-.641,8.062-2.29,2.29-7.6,4.948-10.9,4.948a2.6,2.6,0,0,1-1.283-.275,1.039,1.039,0,0,1-.275-.733c0-.275,0-.641,0-.916Zm26.113,57.354h-26.02V49.432h26.02Zm3.115-35.548H138.133V29.642H167.36V44.027Z" transform="translate(-98.003 -4.355)" fill="#f7d9c7"/>
</svg>
