<svg xmlns="http://www.w3.org/2000/svg" width="77.295" height="80.809" viewBox="0 0 77.295 80.809">
  <g id="Group_925" data-name="Group 925" transform="translate(0 0)">
    <path id="Path_418" data-name="Path 418" d="M223.171,109.433a9.027,9.027,0,0,0-5.456-8.241,11.221,11.221,0,0,0-20.127-8.059L186.033,67.57a1.657,1.657,0,0,0-3.019,0L171.459,93.134a11.223,11.223,0,0,0-20.126,8.059,9.027,9.027,0,0,0-5.456,8.241,8.932,8.932,0,0,0,3.029,6.706,8.49,8.49,0,0,0-1.054,4.106v2.472a8.559,8.559,0,0,0,8.548,8.549h2.79a27.955,27.955,0,0,0,50.669,0h2.789a8.559,8.559,0,0,0,8.548-8.549v-2.472a8.5,8.5,0,0,0-1.053-4.106,8.934,8.934,0,0,0,3.029-6.706ZM206.566,91.947h0a7.918,7.918,0,0,1,7.651,9.942,1.658,1.658,0,0,0,1.24,2.04,5.635,5.635,0,0,1,2.555,9.668,8.506,8.506,0,0,0-5.365-1.9h-1.274a28.1,28.1,0,0,0-9.4-14.067,27.333,27.333,0,0,0-2.3-1.649,7.92,7.92,0,0,1,6.9-4.034Zm-28.08,2.634,12.983-6.943,3.138,6.943Zm-.26-8.37,10.146-5.426,1.73,3.827-14.709,7.867Zm6.3-13.937L187,77.76l-6.539,3.5ZM153.591,103.93a1.658,1.658,0,0,0,1.24-2.04,7.913,7.913,0,0,1,14.546-5.908,27.365,27.365,0,0,0-2.3,1.649,28.1,28.1,0,0,0-9.4,14.067H156.4a8.506,8.506,0,0,0-5.365,1.9,5.635,5.635,0,0,1,2.555-9.668Zm64.292,18.788a5.241,5.241,0,0,1-5.235,5.236h-1.5a27.837,27.837,0,0,0,1.322-8.493,1.657,1.657,0,1,0-3.313,0,24.479,24.479,0,0,1-2.981,11.739h.007a24.636,24.636,0,0,1-43.313,0h.007a24.479,24.479,0,0,1-2.981-11.739,1.657,1.657,0,1,0-3.313,0,27.833,27.833,0,0,0,1.322,8.493h-1.5a5.241,5.241,0,0,1-5.235-5.236v-2.472a5.241,5.241,0,0,1,5.235-5.235h2.551a1.657,1.657,0,0,0,1.612-1.273A24.762,24.762,0,0,1,172.607,97.9h23.837a24.763,24.763,0,0,1,12.043,15.843,1.657,1.657,0,0,0,1.612,1.273h2.551a5.241,5.241,0,0,1,5.235,5.235Z" transform="translate(-145.877 -66.596)" fill="#f7d9c7"/>
    <path id="Path_419" data-name="Path 419" d="M291.985,368.648a1.657,1.657,0,0,0-2.073,1.092,14.749,14.749,0,0,1-28.165,0,1.657,1.657,0,1,0-3.165.981,18.063,18.063,0,0,0,34.5,0,1.657,1.657,0,0,0-1.092-2.072Z" transform="translate(-237.182 -311.394)" fill="#f7d9c7"/>
    <path id="Path_420" data-name="Path 420" d="M309.264,314.585a9.524,9.524,0,1,0-6.724-2.79A9.517,9.517,0,0,0,309.264,314.585Zm0-15.716a6.207,6.207,0,1,1-4.383,1.818,6.2,6.2,0,0,1,4.383-1.818Z" transform="translate(-270.617 -252.206)" fill="#f7d9c7"/>
    <path id="Path_421" data-name="Path 421" d="M401.616,283.031a2.566,2.566,0,1,1-2.944-2.122,2.566,2.566,0,0,1,2.944,2.122" transform="translate(-349.062 -240.305)" fill="#f7d9c7"/>
    <path id="Path_422" data-name="Path 422" d="M279.917,281.072a2.566,2.566,0,1,1-3.353,1.389,2.566,2.566,0,0,1,3.353-1.389" transform="translate(-251.663 -240.305)" fill="#f7d9c7"/>
  </g>
</svg>
