<svg xmlns="http://www.w3.org/2000/svg" width="80.802" height="80.808" viewBox="0 0 80.802 80.808">
  <path id="Path_468" data-name="Path 468" d="M157.765,38.7A29.34,29.34,0,0,0,147.636,20.65a28.986,28.986,0,0,0-21.365-6.724,29.344,29.344,0,0,0-19.833,10.47c-6.214,7.491-9.7,14.3-10.64,20.855a23.623,23.623,0,0,0,4.937,17.79L86.179,77.68a7.756,7.756,0,0,0-2.3,6.044,8.137,8.137,0,0,0,2.894,5.788l3.83,3.235A8.263,8.263,0,0,0,95.8,94.62a4.153,4.153,0,0,0,1.021-.085,8.063,8.063,0,0,0,5.533-3.32l11.832-16.854a24.932,24.932,0,0,0,11.236,2.809,23.173,23.173,0,0,0,7.15-1.107c6.3-2.043,12.428-6.639,18.641-14.13a1.176,1.176,0,0,0,.255-.34c.34,0,.766.085,1.107.085a12.134,12.134,0,0,0,12.087-12.087,11.965,11.965,0,0,0-6.895-10.9Zm-59.329,49.8a3.11,3.11,0,0,1-2.213,1.361,3.512,3.512,0,0,1-2.554-.766l-3.83-3.235a3.582,3.582,0,0,1-1.192-2.383A3.03,3.03,0,0,1,89.584,81l14.3-14.3c.936.936,1.958,1.873,2.98,2.724,1.107.936,2.128,1.7,3.235,2.468Zm11.491-22.727c-6.98-5.873-10.044-12.087-9.364-19.152l29.877,25.025c-6.809,1.958-13.533,0-20.514-5.873Zm25.451,3.915-33.708-28.26c1.447-4.341,4.256-8.938,8.427-13.96a24.564,24.564,0,0,1,16.6-8.682,19.283,19.283,0,0,1,2.213-.085,24.383,24.383,0,0,1,23.748,18.9,12.034,12.034,0,0,0-6.043,22.472c-3.83,4.341-7.49,7.576-11.236,9.618ZM152.658,57a7.32,7.32,0,1,1,7.32-7.32A7.375,7.375,0,0,1,152.658,57Z" transform="translate(-83.86 -13.811)" fill="#f7d9c7"/>
</svg>
