<svg xmlns="http://www.w3.org/2000/svg" width="30.069" height="30.061" viewBox="0 0 30.069 30.061">
  <path id="noun-phone-5079153" d="M173.519,98.357l-3.841,3.833c-2.009,2.009-2.086,5.212-1,8.5a29.464,29.464,0,0,0,16.7,16.7c3.29,1.087,6.485,1,8.494-1.007l3.841-3.833a1.156,1.156,0,0,0,0-1.639l-6.129-6.129a1.156,1.156,0,0,0-1.639,0l-3.688,3.7c-.063.063-.171.13-.487.136a3.823,3.823,0,0,1-1.366-.3,13.41,13.41,0,0,1-6.564-6.573,3.785,3.785,0,0,1-.3-1.357c.007-.316.074-.424.136-.487l3.688-3.688h0a1.156,1.156,0,0,0,0-1.639l-6.215-6.214a1.157,1.157,0,0,0-1.63,0Zm.82,2.459,4.576,4.576-2.868,2.868a3.009,3.009,0,0,0-.82,2.074,5.843,5.843,0,0,0,.452,2.245,15.585,15.585,0,0,0,7.887,7.887,5.9,5.9,0,0,0,2.254.461,2.987,2.987,0,0,0,2.066-.82l2.877-2.868,4.49,4.49-3.013,3.022c-1.137,1.137-3.3,1.382-6.137.444a27.211,27.211,0,0,1-15.228-15.228c-.938-2.839-.693-5,.444-6.137Z" transform="translate(-167.982 -98.02)" fill="#fff" fill-rule="evenodd"/>
</svg>
