<svg xmlns="http://www.w3.org/2000/svg" width="74.444" height="57.42" viewBox="0 0 74.444 57.42">
  <path id="noun-finger-5057019" d="M187.622,42.022a7.063,7.063,0,0,0-7.031,7.03V78.568l-1.051-1.82a7.031,7.031,0,1,0-12.178,7.032s5.452,9.9,7.729,14.819a41.337,41.337,0,0,0,6.021,10.383,20.537,20.537,0,0,0,15.852,7.464c11.03.1,17.876-3.31,21.788-7.869a22.205,22.205,0,0,0,4.976-13.624c.272-6.151,0-18.036,0-18.036a7.016,7.016,0,0,0-10.209-6.264,7.069,7.069,0,0,0-6.509-4.391,6.964,6.964,0,0,0-3.432.9,7.061,7.061,0,0,0-6.255-3.843,6.93,6.93,0,0,0-2.655.525V49.035A7.064,7.064,0,0,0,187.643,42Zm0,4.376a2.6,2.6,0,0,1,2.655,2.654V81.276a2.188,2.188,0,0,0,4.376,0V70.37a2.655,2.655,0,1,1,5.31,0V81.276h0a2.188,2.188,0,0,0,4.376,0V73.307a2.655,2.655,0,1,1,5.31,0v7.969a2.188,2.188,0,0,0,4.376,0V76.929a2.655,2.655,0,1,1,5.31,0h0s.253,11.982,0,17.745a18,18,0,0,1-3.926,10.97c-3,3.5-8.285,6.426-18.43,6.343a15.857,15.857,0,0,1-12.557-5.927c-2.767-3.251-4.309-7.07-5.382-9.386-2.45-5.287-7.868-15.092-7.868-15.092a2.655,2.655,0,1,1,4.6-2.658l5.134,8.9a2.188,2.188,0,0,0,4.082-1.094V49.039a2.6,2.6,0,0,1,2.656-2.654Z" transform="translate(116.448 -166.431) rotate(90)" fill="#898989"/>
</svg>
