<svg xmlns="http://www.w3.org/2000/svg" width="111.323" height="111.324" viewBox="0 0 111.323 111.324">
  <path id="Контур_292" data-name="Контур 292" d="M191.392,28a1.95,1.95,0,0,0-.537.078l-2.527.745a122.425,122.425,0,0,1-34.665,5.031A122.371,122.371,0,0,1,119,28.821l-2.528-.745a1.98,1.98,0,0,0-.536-.077,17.928,17.928,0,0,0-12.692,30.6l.009.009a17.944,17.944,0,0,0,12.682,5.242H151.77V76.7a1.891,1.891,0,0,0,.645,1.426L155.7,81a2.528,2.528,0,0,1,0,3.789l-6.575,5.777a6.309,6.309,0,0,0,0,9.475l6.576,5.779a2.528,2.528,0,0,1,0,3.789l-6.575,5.777a6.309,6.309,0,0,0,0,9.475l6.576,5.779a2.514,2.514,0,0,1,0,3.777L153.9,136a1.9,1.9,0,0,0,2.506,2.847l1.795-1.581a6.306,6.306,0,0,0,0-9.472l-6.576-5.779a2.514,2.514,0,0,1,0-3.777l6.575-5.777a6.322,6.322,0,0,0,0-9.488L151.626,97.2a2.514,2.514,0,0,1,0-3.777l6.575-5.777a6.322,6.322,0,0,0,0-9.488l0,0-2.642-2.317V63.847h35.831A17.939,17.939,0,0,0,204.072,58.6l.009-.009A17.926,17.926,0,0,0,191.394,28Zm10,27.917a14.142,14.142,0,0,1-10.005,4.136H115.937A14.125,14.125,0,0,1,115.7,31.8l2.225.657a126.2,126.2,0,0,0,35.683,5.186h.1A126.2,126.2,0,0,0,189.4,32.458l2.224-.656A14.129,14.129,0,0,1,201.4,55.916Z" transform="translate(-98.004 -27.998)"/>
</svg>
