<svg xmlns="http://www.w3.org/2000/svg" width="73.634" height="114" viewBox="0 0 73.634 114">
  <g id="Сгруппировать_898" data-name="Сгруппировать 898" transform="translate(-0.001 0)">
    <path id="Контур_335" data-name="Контур 335" d="M296.811,235.643v1.536a8.879,8.879,0,1,0,17.758,0v-1.536a12.95,12.95,0,1,0-17.758,0Zm2.47-15.807a9.066,9.066,0,1,1,12.113,13.458,1.952,1.952,0,0,0-.706,1.5v2.387a5.013,5.013,0,0,1-1.464,3.558,4.928,4.928,0,0,1-3.505,1.463,5.006,5.006,0,0,1-5.022-5.022v-2.387a1.949,1.949,0,0,0-.706-1.5,9.125,9.125,0,0,1-3.365-7.073,8.976,8.976,0,0,1,2.656-6.385Z" transform="translate(-268.875 -171.386)"/>
    <path id="Контур_336" data-name="Контур 336" d="M312.962,370.554a1.941,1.941,0,0,0-2.6-.877l-12.41,6.15-12.41-6.149a1.942,1.942,0,1,0-1.726,3.48l9.76,4.836-9.76,4.836a1.942,1.942,0,1,0,1.726,3.48l12.41-6.15,12.41,6.149a1.942,1.942,0,1,0,1.726-3.48l-9.76-4.836,9.76-4.836A1.943,1.943,0,0,0,312.962,370.554Z" transform="translate(-261.131 -292.237)"/>
    <path id="Контур_337" data-name="Контур 337" d="M253.363,67.463l-12.428-8.157a5.4,5.4,0,0,1-2.436-4.513V49.447a9.286,9.286,0,0,0,5.524-8.493V37.3a9.284,9.284,0,0,0-9.275-9.291h-21.4a9.282,9.282,0,0,0-9.275,9.29v3.658a9.287,9.287,0,0,0,5.524,8.493v5.346a5.4,5.4,0,0,1-2.436,4.513l-12.428,8.157a16.62,16.62,0,0,0-7.5,13.9l0,40.04.006.068v3.911a16.622,16.622,0,0,0,16.623,16.627h40.368a16.624,16.624,0,0,0,16.624-16.624v-3.911l.008-.07,0-40.04a16.633,16.633,0,0,0-7.5-13.9Zm-45.4-26.509V37.3a5.4,5.4,0,0,1,5.39-5.406h21.4a5.4,5.4,0,0,1,5.39,5.406v3.658a5.4,5.4,0,0,1-5.39,5.406h-21.4a5.4,5.4,0,0,1-5.391-5.406ZM256.973,121.4v3.982a12.736,12.736,0,0,1-12.739,12.739H203.866a12.736,12.736,0,0,1-12.739-12.739V121.4l-.006-.068,0-39.97a12.74,12.74,0,0,1,5.748-10.65l12.428-8.159a9.284,9.284,0,0,0,4.189-7.761V50.244h21.13v4.548a9.284,9.284,0,0,0,4.189,7.761l12.428,8.157a12.741,12.741,0,0,1,5.748,10.65l0,39.97Z" transform="translate(-187.232 -28.005)"/>
  </g>
</svg>
