<svg id="Сгруппировать_899" data-name="Сгруппировать 899" xmlns="http://www.w3.org/2000/svg" width="88.844" height="114" viewBox="0 0 88.844 114">
  <path id="Контур_380" data-name="Контур 380" d="M188.485,74.318l-.015-.152V35.641l0-.039-.021-.22-.025-.163-.057-.185-.062-.178-.08-.148-.11-.186-.02-.034-.088-.1-.14-.155-.146-.12-.151-.11-.169-.091-.167-.079-.186-.058-.176-.044-.216-.021-.124-.012-.038,0-.227.024-.157.021-.189.058-.175.061-.149.081-.185.11-.034.02c-9.277,6.84-17.062,15.115-22.546,27.209s-8.706,27.919-9.214,49.972a1.942,1.942,0,0,0,1.942,1.987h18.667l.464,26.39v.01a6.932,6.932,0,0,0,11.831,4.732l.011-.012a6.972,6.972,0,0,0,2.018-4.9l-.032-35.356Zm-4.721,67.319a3.047,3.047,0,0,1-5.194-2.078l-.5-28.29-.02-.175-.024-.2-.056-.178-.061-.185-.088-.164-.093-.163-.119-.144-.12-.14-.144-.119-.144-.115-.163-.088-.167-.087-.181-.056-.185-.053-.2-.02-.178-.018H157.563c.643-20.672,3.771-35.39,8.8-46.469A62.032,62.032,0,0,1,184.587,39.6V74.32l.015.157.03,29.636.032,35.354a3.089,3.089,0,0,1-.9,2.172Z" transform="translate(-153.614 -32.408)"/>
  <path id="Контур_381" data-name="Контур 381" d="M394.091,37.036V37.03a9.722,9.722,0,0,0-3.029-6.423l-.009-.008a9.684,9.684,0,0,0-6.608-2.6,1.943,1.943,0,0,0-1.942,1.942V59.85h-2.922V29.937a1.944,1.944,0,0,0-1.943-1.943h-7.847a1.943,1.943,0,0,0-1.942,1.942V59.849h-2.922V29.936a1.944,1.944,0,0,0-1.942-1.943h-.015a9.663,9.663,0,0,0-9.646,9.042l-1.6,24.458,0,.034c-.015.33-.033.7-.033,1.087A17,17,0,0,0,366.747,79.48v55.55a6.893,6.893,0,0,0,2.036,4.9l0,0,.012.01.01.012,0,0a6.894,6.894,0,0,0,4.9,2.036,6.969,6.969,0,0,0,6.962-6.962V79.483a17,17,0,0,0,15.058-16.873q0-.551-.035-1.112Zm-6.074,34.822a13.041,13.041,0,0,1-9.291,3.859,1.943,1.943,0,0,0-1.942,1.942v57.373a3.083,3.083,0,0,1-3.077,3.077,3.011,3.011,0,0,1-2.159-.9l-.023-.023a3,3,0,0,1-.9-2.159V77.658a1.943,1.943,0,0,0-1.942-1.942,13.118,13.118,0,0,1-13.116-13.1c0-.263.012-.575.029-.9l1.6-24.431a5.762,5.762,0,0,1,3.843-5.063V61.791a1.943,1.943,0,0,0,1.942,1.942h6.807a1.943,1.943,0,0,0,1.942-1.942V31.877H375.7V61.791a1.943,1.943,0,0,0,1.942,1.942h6.807a1.943,1.943,0,0,0,1.942-1.942V32.228a5.688,5.688,0,0,1,3.827,5.064v-.006l1.6,24.46c.018.286.026.573.028.86a13.088,13.088,0,0,1-3.827,9.25Z" transform="translate(-306.885 -27.993)"/>
</svg>
